<svg width="16" height="16" viewBox="0 0 16 16" fill="none" xmlns="http://www.w3.org/2000/svg">
<path d="M5.5082 14.6421C5.55518 13.3496 5.87141 9 8 9C10.1286 9 10.4448 13.3496 10.4918 14.6421C10.4996 14.8571 10.3629 15.0476 10.1552 15.1039C8.82085 15.4654 7.17915 15.4654 5.84484 15.1039C5.63711 15.0476 5.50038 14.8571 5.5082 14.6421Z" fill="url(#paint0_linear_303_77)"/>
<path d="M4 1.5H12C12.8284 1.5 13.5 2.17157 13.5 3V7.5C13.5 8.32843 12.8284 9 12 9H4C3.17157 9 2.5 8.32843 2.5 7.5V3C2.5 2.17157 3.17157 1.5 4 1.5Z" fill="#171717" stroke="url(#paint1_linear_303_77)"/>
<path fill-rule="evenodd" clip-rule="evenodd" d="M9.26254 3C9.26254 3 9 3.00001 9 4.25C9 5.5 9.26254 5.5 9.26254 5.5C9.26254 5.5 9.525 5.5 9.525 4.25C9.525 3 9.26254 3 9.26254 3ZM6.5 4.25C6.5 3 6.76255 3 6.76255 3C6.76255 3 7.025 3.00001 7.025 4.25C7.025 5.5 6.76255 5.5 6.76255 5.5C6.76255 5.5 6.5 5.5 6.5 4.25ZM5.73718 5.92094C5.69352 5.78996 5.55194 5.71917 5.42095 5.76283C5.28996 5.80649 5.21917 5.94807 5.26284 6.07906C5.42052 6.55212 5.84125 6.87405 6.32629 7.07475C6.81646 7.27758 7.41288 7.375 8.00001 7.375C8.58713 7.375 9.18355 7.27758 9.67372 7.07475C10.1588 6.87405 10.5795 6.55212 10.7372 6.07906C10.7808 5.94807 10.71 5.80649 10.5791 5.76283C10.4481 5.71917 10.3065 5.78996 10.2628 5.92094C10.1705 6.19788 9.90375 6.43845 9.48254 6.61274C9.06646 6.78492 8.53788 6.875 8.00001 6.875C7.46213 6.875 6.93355 6.78492 6.51747 6.61274C6.09626 6.43845 5.82949 6.19788 5.73718 5.92094Z" fill="#C2F5AE"/>
<defs>
<linearGradient id="paint0_linear_303_77" x1="8" y1="9" x2="8" y2="15.375" gradientUnits="userSpaceOnUse">
<stop stop-color="#576066"/>
<stop offset="0.276042" stop-color="#C8CFD3"/>
<stop offset="0.713542" stop-color="#C8CFD3"/>
<stop offset="1" stop-color="#969B9E"/>
</linearGradient>
<linearGradient id="paint1_linear_303_77" x1="8" y1="8" x2="8" y2="9.5" gradientUnits="userSpaceOnUse">
<stop stop-color="#C8CFD3"/>
<stop offset="1" stop-color="#969B9E"/>
</linearGradient>
</defs>
</svg>
