<svg width="60" height="16" viewBox="0 0 60 16" fill="none" xmlns="http://www.w3.org/2000/svg">
<path d="M20.64 8.62C19.9253 8.62 19.36 8.44133 18.944 8.084C18.528 7.72667 18.32 7.228 18.32 6.588C18.32 5.95867 18.504 5.46 18.872 5.092C19.24 4.724 19.7653 4.54 20.448 4.54C20.896 4.54 21.2773 4.62533 21.592 4.796C21.912 4.96667 22.152 5.20133 22.312 5.5C22.472 5.79333 22.552 6.12933 22.552 6.508V6.972H19.28C19.3493 7.54267 19.8453 7.828 20.768 7.828C21.0133 7.828 21.264 7.80667 21.52 7.764C21.776 7.72133 22 7.66267 22.192 7.588V8.364C22.0107 8.43867 21.776 8.5 21.488 8.548C21.2053 8.596 20.9227 8.62 20.64 8.62ZM21.6 6.284C21.5893 5.98 21.48 5.74533 21.272 5.58C21.0693 5.41467 20.7893 5.332 20.432 5.332C20.08 5.332 19.8027 5.41733 19.6 5.588C19.3973 5.75867 19.2907 5.99067 19.28 6.284H21.6ZM24.6788 6.508L23.1508 4.66H24.2708L25.2388 5.836L26.2068 4.66H27.3268L25.7988 6.508L27.4388 8.5H26.3268L25.2388 7.188L24.1508 8.5H23.0388L24.6788 6.508ZM29.2864 8.62C28.8278 8.62 28.4518 8.5 28.1584 8.26C27.8651 8.01467 27.7184 7.68667 27.7184 7.276C27.7184 6.84933 27.8571 6.516 28.1344 6.276C28.4118 6.036 28.8011 5.916 29.3024 5.916C29.7878 5.916 30.2064 6.01467 30.5584 6.212V6.108C30.5584 5.836 30.4731 5.63867 30.3024 5.516C30.1371 5.39333 29.8678 5.332 29.4944 5.332C29.2598 5.332 29.0278 5.356 28.7984 5.404C28.5691 5.44667 28.3664 5.508 28.1904 5.588V4.796C28.3504 4.72133 28.5638 4.66 28.8304 4.612C29.1024 4.564 29.3638 4.54 29.6144 4.54C30.2811 4.54 30.7744 4.684 31.0944 4.972C31.4144 5.25467 31.5744 5.64933 31.5744 6.156V8.5H30.6224V8.124C30.4571 8.284 30.2678 8.40667 30.0544 8.492C29.8464 8.57733 29.5904 8.62 29.2864 8.62ZM29.5344 7.884C29.7584 7.884 29.9611 7.84133 30.1424 7.756C30.3238 7.66533 30.4624 7.54267 30.5584 7.388V6.964C30.2651 6.756 29.9291 6.652 29.5504 6.652C29.0118 6.652 28.7424 6.86 28.7424 7.276C28.7424 7.47867 28.8091 7.63067 28.9424 7.732C29.0811 7.83333 29.2784 7.884 29.5344 7.884ZM32.4956 4.66H33.4396V5.164C33.6103 4.96133 33.8103 4.80667 34.0396 4.7C34.269 4.59333 34.501 4.54 34.7356 4.54C35.0343 4.54 35.2743 4.59067 35.4556 4.692C35.637 4.788 35.773 4.93467 35.8636 5.132C36.0343 4.94 36.2396 4.79333 36.4796 4.692C36.725 4.59067 36.9676 4.54 37.2076 4.54C37.6876 4.54 38.0316 4.66 38.2396 4.9C38.4476 5.14 38.5516 5.492 38.5516 5.956V8.5H37.5836V6.092C37.5836 5.82 37.5276 5.62533 37.4156 5.508C37.309 5.39067 37.1356 5.332 36.8956 5.332C36.725 5.332 36.5676 5.36667 36.4236 5.436C36.285 5.5 36.157 5.612 36.0396 5.772C36.0503 5.94267 36.0556 6.08133 36.0556 6.188V8.5H35.0796V6.076C35.0796 5.79867 35.0343 5.60667 34.9436 5.5C34.853 5.388 34.6876 5.332 34.4476 5.332C34.085 5.332 33.7596 5.53733 33.4716 5.948V8.5H32.4956V4.66ZM39.4722 4.66H40.4482V5.124C40.6562 4.92667 40.8829 4.78 41.1282 4.684C41.3735 4.588 41.6535 4.54 41.9682 4.54C42.3575 4.54 42.7042 4.62533 43.0082 4.796C43.3175 4.96133 43.5575 5.19867 43.7282 5.508C43.9042 5.812 43.9922 6.16667 43.9922 6.572C43.9922 6.972 43.9042 7.32667 43.7282 7.636C43.5575 7.94533 43.3175 8.188 43.0082 8.364C42.7042 8.53467 42.3575 8.62 41.9682 8.62C41.6749 8.62 41.3975 8.58 41.1362 8.5C40.8802 8.41467 40.6615 8.28933 40.4802 8.124V10.252H39.4722V4.66ZM41.7202 7.828C42.0829 7.828 42.3815 7.71067 42.6162 7.476C42.8509 7.24133 42.9682 6.94 42.9682 6.572C42.9682 6.204 42.8509 5.90533 42.6162 5.676C42.3815 5.44667 42.0829 5.332 41.7202 5.332C41.4322 5.332 41.1762 5.40933 40.9522 5.564C40.7282 5.71867 40.5709 5.92667 40.4802 6.188V6.964C40.5655 7.22533 40.7202 7.436 40.9442 7.596C41.1735 7.75067 41.4322 7.828 41.7202 7.828ZM44.7925 2.588H45.8005V8.5H44.7925V2.588ZM48.9213 8.62C48.2066 8.62 47.6413 8.44133 47.2253 8.084C46.8093 7.72667 46.6013 7.228 46.6013 6.588C46.6013 5.95867 46.7853 5.46 47.1533 5.092C47.5213 4.724 48.0466 4.54 48.7293 4.54C49.1773 4.54 49.5586 4.62533 49.8733 4.796C50.1933 4.96667 50.4333 5.20133 50.5933 5.5C50.7533 5.79333 50.8333 6.12933 50.8333 6.508V6.972H47.5613C47.6306 7.54267 48.1266 7.828 49.0493 7.828C49.2946 7.828 49.5453 7.80667 49.8013 7.764C50.0573 7.72133 50.2813 7.66267 50.4733 7.588V8.364C50.2919 8.43867 50.0573 8.5 49.7693 8.548C49.4866 8.596 49.2039 8.62 48.9213 8.62ZM49.8813 6.284C49.8706 5.98 49.7613 5.74533 49.5533 5.58C49.3506 5.41467 49.0706 5.332 48.7133 5.332C48.3613 5.332 48.0839 5.41733 47.8813 5.588C47.6786 5.75867 47.5719 5.99067 47.5613 6.284H49.8813Z" fill="url(#paint0_linear_302_77)"/>
<path d="M18.28 9.544H18.588V12.5H18.28V9.544ZM20.3312 12.56C20.1232 12.56 19.9379 12.5187 19.7752 12.436C19.6152 12.3533 19.4899 12.236 19.3992 12.084C19.3112 11.9293 19.2672 11.7493 19.2672 11.544C19.2672 11.3413 19.3125 11.1627 19.4032 11.008C19.4939 10.8533 19.6192 10.7333 19.7792 10.648C19.9419 10.5627 20.1259 10.52 20.3312 10.52C20.5365 10.52 20.7192 10.5627 20.8792 10.648C21.0419 10.7333 21.1685 10.8533 21.2592 11.008C21.3499 11.1627 21.3952 11.3413 21.3952 11.544C21.3952 11.7493 21.3499 11.9293 21.2592 12.084C21.1712 12.236 21.0459 12.3533 20.8832 12.436C20.7232 12.5187 20.5392 12.56 20.3312 12.56ZM20.3312 12.316C20.5605 12.316 20.7432 12.2467 20.8792 12.108C21.0179 11.9667 21.0872 11.7787 21.0872 11.544C21.0872 11.3067 21.0179 11.1187 20.8792 10.98C20.7432 10.8387 20.5605 10.768 20.3312 10.768C20.1019 10.768 19.9179 10.8387 19.7792 10.98C19.6432 11.1187 19.5752 11.3067 19.5752 11.544C19.5752 11.7787 19.6432 11.9667 19.7792 12.108C19.9179 12.2467 20.1019 12.316 20.3312 12.316ZM22.645 12.56C22.413 12.56 22.229 12.5027 22.093 12.388C21.9596 12.2707 21.893 12.1107 21.893 11.908C21.893 11.6973 21.9583 11.536 22.089 11.424C22.2196 11.3093 22.409 11.252 22.657 11.252C22.9343 11.252 23.173 11.3093 23.373 11.424V11.28C23.373 11.1067 23.3236 10.9787 23.225 10.896C23.1263 10.8107 22.9703 10.768 22.757 10.768C22.5303 10.768 22.321 10.8107 22.129 10.896V10.636C22.209 10.6013 22.3103 10.5733 22.433 10.552C22.5556 10.5307 22.673 10.52 22.785 10.52C23.089 10.52 23.3143 10.5893 23.461 10.728C23.6076 10.864 23.681 11.0533 23.681 11.296V12.5H23.393V12.252C23.225 12.4573 22.9756 12.56 22.645 12.56ZM22.721 12.308C22.865 12.308 22.9943 12.28 23.109 12.224C23.2263 12.1653 23.3143 12.084 23.373 11.98V11.672C23.269 11.6107 23.165 11.5667 23.061 11.54C22.9596 11.5107 22.845 11.496 22.717 11.496C22.5356 11.496 22.4036 11.5307 22.321 11.6C22.241 11.6667 22.201 11.7693 22.201 11.908C22.201 12.1747 22.3743 12.308 22.721 12.308ZM25.3431 12.56C25.1537 12.56 24.9831 12.5187 24.8311 12.436C24.6791 12.3533 24.5591 12.2347 24.4711 12.08C24.3831 11.9253 24.3391 11.7467 24.3391 11.544C24.3391 11.344 24.3817 11.1667 24.4671 11.012C24.5551 10.8547 24.6751 10.7333 24.8271 10.648C24.9817 10.5627 25.1537 10.52 25.3431 10.52C25.5271 10.52 25.6897 10.5533 25.8311 10.62C25.9751 10.684 26.0897 10.7787 26.1751 10.904V9.544H26.4831V12.5H26.1831V12.164C26.0817 12.2973 25.9617 12.3973 25.8231 12.464C25.6871 12.528 25.5271 12.56 25.3431 12.56ZM25.4071 12.316C25.5911 12.316 25.7511 12.2693 25.8871 12.176C26.0257 12.08 26.1217 11.9493 26.1751 11.784V11.304C26.1244 11.1387 26.0297 11.008 25.8911 10.912C25.7551 10.816 25.5937 10.768 25.4071 10.768C25.2657 10.768 25.1364 10.8013 25.0191 10.868C24.9044 10.932 24.8137 11.0227 24.7471 11.14C24.6804 11.2573 24.6471 11.392 24.6471 11.544C24.6471 11.696 24.6804 11.8307 24.7471 11.948C24.8137 12.0653 24.9044 12.156 25.0191 12.22C25.1364 12.284 25.2657 12.316 25.4071 12.316ZM28.2761 12.56C27.9267 12.56 27.6534 12.4707 27.4561 12.292C27.2614 12.1133 27.1641 11.864 27.1641 11.544C27.1641 11.2293 27.2521 10.98 27.4281 10.796C27.6041 10.612 27.8547 10.52 28.1801 10.52C28.3987 10.52 28.5841 10.5627 28.7361 10.648C28.8881 10.7307 29.0027 10.8453 29.0801 10.992C29.1574 11.1387 29.1961 11.3053 29.1961 11.492V11.66H27.4521C27.4627 11.8787 27.5427 12.0427 27.6921 12.152C27.8441 12.2613 28.0494 12.316 28.3081 12.316C28.4334 12.316 28.5561 12.3053 28.6761 12.284C28.7987 12.26 28.9081 12.228 29.0041 12.188V12.448C28.9241 12.48 28.8147 12.5067 28.6761 12.528C28.5401 12.5493 28.4067 12.56 28.2761 12.56ZM28.9081 11.44C28.9027 11.232 28.8387 11.068 28.7161 10.948C28.5934 10.828 28.4134 10.768 28.1761 10.768C27.9441 10.768 27.7667 10.8307 27.6441 10.956C27.5214 11.0787 27.4574 11.24 27.4521 11.44H28.9081ZM29.8777 10.58H30.1777V10.956C30.3323 10.7053 30.6217 10.58 31.0457 10.58V10.828C30.5817 10.828 30.295 10.9813 30.1857 11.288V12.5H29.8777V10.58ZM31.6081 9.704H31.9081V11.732H31.6081V9.704ZM31.7561 12.56C31.7027 12.56 31.6574 12.5413 31.6201 12.504C31.5827 12.4667 31.5641 12.4213 31.5641 12.368C31.5641 12.3147 31.5827 12.2693 31.6201 12.232C31.6574 12.1947 31.7027 12.176 31.7561 12.176C31.8094 12.176 31.8547 12.1947 31.8921 12.232C31.9321 12.2693 31.9521 12.3147 31.9521 12.368C31.9521 12.4213 31.9321 12.4667 31.8921 12.504C31.8547 12.5413 31.8094 12.56 31.7561 12.56Z" fill="url(#paint1_linear_302_77)" fill-opacity="0.75"/>
<path d="M5.5082 14.6421C5.55518 13.3496 5.87141 9 8 9C10.1286 9 10.4448 13.3496 10.4918 14.6421C10.4996 14.8571 10.3629 15.0476 10.1552 15.1039C8.82085 15.4654 7.17915 15.4654 5.84484 15.1039C5.63711 15.0476 5.50038 14.8571 5.5082 14.6421Z" fill="url(#paint2_linear_302_77)"/>
<path d="M4 1.5H12C12.8284 1.5 13.5 2.17157 13.5 3V7.5C13.5 8.32843 12.8284 9 12 9H4C3.17157 9 2.5 8.32843 2.5 7.5V3C2.5 2.17157 3.17157 1.5 4 1.5Z" fill="#171717" stroke="url(#paint3_linear_302_77)"/>
<path fill-rule="evenodd" clip-rule="evenodd" d="M9.26254 3C9.26254 3 9 3.00001 9 4.25C9 5.5 9.26254 5.5 9.26254 5.5C9.26254 5.5 9.525 5.5 9.525 4.25C9.525 3 9.26254 3 9.26254 3ZM6.5 4.25C6.5 3 6.76255 3 6.76255 3C6.76255 3 7.025 3.00001 7.025 4.25C7.025 5.5 6.76255 5.5 6.76255 5.5C6.76255 5.5 6.5 5.5 6.5 4.25ZM5.73718 5.92094C5.69352 5.78996 5.55194 5.71917 5.42095 5.76283C5.28996 5.80649 5.21917 5.94807 5.26284 6.07906C5.42052 6.55212 5.84125 6.87405 6.32629 7.07475C6.81646 7.27758 7.41288 7.375 8.00001 7.375C8.58713 7.375 9.18355 7.27758 9.67372 7.07475C10.1588 6.87405 10.5795 6.55212 10.7372 6.07906C10.7808 5.94807 10.71 5.80649 10.5791 5.76283C10.4481 5.71917 10.3065 5.78996 10.2628 5.92094C10.1705 6.19788 9.90375 6.43845 9.48254 6.61274C9.06646 6.78492 8.53788 6.875 8.00001 6.875C7.46213 6.875 6.93355 6.78492 6.51747 6.61274C6.09626 6.43845 5.82949 6.19788 5.73718 5.92094Z" fill="#C2F5AE"/>
<defs>
<linearGradient id="paint0_linear_302_77" x1="36" y1="7.375" x2="36" y2="9.66667" gradientUnits="userSpaceOnUse">
<stop stop-color="#60D99F"/>
<stop offset="1" stop-color="#59987A"/>
</linearGradient>
<linearGradient id="paint1_linear_302_77" x1="33.4286" y1="8.1" x2="33.4286" y2="11.7" gradientUnits="userSpaceOnUse">
<stop stop-color="#B5CEC2"/>
<stop offset="1" stop-color="#E5EDE9"/>
</linearGradient>
<linearGradient id="paint2_linear_302_77" x1="8" y1="9" x2="8" y2="15.375" gradientUnits="userSpaceOnUse">
<stop stop-color="#576066"/>
<stop offset="0.276042" stop-color="#C8CFD3"/>
<stop offset="0.713542" stop-color="#C8CFD3"/>
<stop offset="1" stop-color="#969B9E"/>
</linearGradient>
<linearGradient id="paint3_linear_302_77" x1="8" y1="8" x2="8" y2="9.5" gradientUnits="userSpaceOnUse">
<stop stop-color="#C8CFD3"/>
<stop offset="1" stop-color="#969B9E"/>
</linearGradient>
</defs>
</svg>
